<svg width="29" height="30" viewBox="0 0 29 30" fill="none" xmlns="http://www.w3.org/2000/svg">
<path d="M12.8002 11.6185V6.21854C12.8002 5.47295 13.4046 4.86853 14.1502 4.86853H19.5502C20.2958 4.86853 20.9002 5.47295 20.9002 6.21854V11.6185C20.9002 12.3641 21.5046 12.9685 22.2502 12.9685H27.6502C28.3957 12.9685 29.0002 13.5729 29.0002 14.3185V19.7185C29.0002 20.4641 28.3957 21.0685 27.6502 21.0685H22.2502C21.5046 21.0685 20.9002 21.6729 20.9002 22.4185V27.8185C20.9002 28.5641 20.2958 29.1685 19.5502 29.1685H14.1502C13.4046 29.1685 12.8002 28.5641 12.8002 27.8185V22.4185C12.8002 21.6729 12.1958 21.0685 11.4502 21.0685H6.05021C5.30462 21.0685 4.7002 20.4641 4.7002 19.7185V14.3185C4.7002 13.5729 5.30462 12.9685 6.05021 12.9685H11.4502C12.1958 12.9685 12.8002 12.3641 12.8002 11.6185Z" fill="#E6E6F8"/>
<path d="M10.1 8.5814V3.18143C10.1 2.43584 10.7044 1.83142 11.45 1.83142H16.85C17.5956 1.83142 18.2 2.43584 18.2 3.18143V8.5814C18.2 9.32699 18.8044 9.93141 19.55 9.93141H24.95C25.6956 9.93141 26.3 10.5358 26.3 11.2814V16.6814C26.3 17.427 25.6956 18.0314 24.95 18.0314H19.55C18.8044 18.0314 18.2 18.6358 18.2 19.3814V24.7814C18.2 25.527 17.5956 26.1314 16.85 26.1314H11.45C10.7044 26.1314 10.1 25.527 10.1 24.7814V19.3814C10.1 18.6358 9.49557 18.0314 8.74998 18.0314H3.35001C2.60442 18.0314 2 17.427 2 16.6814V11.2814C2 10.5358 2.60442 9.93141 3.35001 9.93141H8.74998C9.49557 9.93141 10.1 9.32699 10.1 8.5814Z" stroke="#5A58CF" stroke-width="2.7" stroke-linejoin="round"/>
</svg>
