<svg width="29" height="34" viewBox="0 0 29 34" fill="none" xmlns="http://www.w3.org/2000/svg">
<path d="M22.7798 14.6463C22.7798 14.6463 22.206 12.4571 21.6132 11.8625C21.0203 11.2678 19.6865 11.2678 19.6865 11.2678C19.6865 11.2678 15.685 11.1191 14.0546 9.48394C12.4244 7.84872 13.4618 6.51081 13.9065 5.02425C14.3511 3.68634 13.0172 3.98365 13.0172 3.98365C9.60847 4.72694 6.34796 8.44335 6.34796 8.44335L5.01408 8.88931C3.68021 9.78128 3.53205 10.3759 3.82843 12.0111C4.12488 13.6463 6.64434 15.8762 6.64434 15.8762L22.3542 30.8905C22.3542 30.8905 26.2076 35.3502 28.4306 33.1203C28.4306 33.1203 29.3199 32.377 28.8753 31.4851C28.4306 30.5931 24.1327 20.9305 24.1327 20.9305" fill="#E2EEFF"/>
<path d="M22.688 14.6173C22.688 14.6173 22.8362 11.7928 22.3915 10.0089C22.3915 10.0089 22.3915 9.41431 21.3541 9.71159C20.4649 10.0089 19.4274 10.7522 18.8346 11.3469" fill="#E2EEFF"/>
<path d="M28.9124 31.7125C28.9124 31.7125 27.7267 33.6451 26.6893 32.7532C25.6518 31.8612 20.4646 27.2528 18.2415 24.2797C16.0184 21.3066 13.4989 18.0361 11.424 15.509C9.34913 12.9818 6.68144 9.56273 6.53322 8.37347" fill="#E2EEFF"/>
<path d="M10.683 14.7659C10.683 14.7659 11.8687 12.8334 11.1277 10.7522C10.3867 8.67104 9.79384 6.88716 9.79384 5.54926" fill="#E2EEFF"/>
<path d="M13.4429 18.8249C13.4429 18.8249 18.3201 18.9736 20.2468 18.8249C22.1735 18.5276 21.7289 17.1897 21.7289 17.1897L21.6346 16.6253L20.0796 11.9461C20.0796 11.9461 19.5058 9.75688 18.913 9.16225C18.3201 8.56763 16.9863 8.56763 16.9863 8.56763C16.9863 8.56763 12.9848 8.41895 11.3544 6.78374C9.72419 5.14853 10.7616 3.81062 11.2063 2.32405C11.6509 0.986149 10.317 1.28346 10.317 1.28346C6.90828 2.02675 3.64776 5.74316 3.64776 5.74316L2.31389 6.18911C0.980011 7.08109 0.831854 7.67571 1.12824 9.31093C1.42468 10.9461 3.94415 13.176 3.94415 13.176L19.654 28.1903C19.654 28.1903 23.5074 32.65 25.7304 30.4201C25.7304 30.4201 26.6197 29.6768 26.1751 28.7849C25.7305 27.893 21.4325 18.2303 21.4325 18.2303" stroke="#408BFC" stroke-width="1.44429" stroke-miterlimit="10"/>
<path d="M19.9878 11.9171C19.9878 11.9171 20.136 9.09262 19.6913 7.30874C19.6913 7.30874 19.6913 6.71411 18.6539 7.01139C17.7647 7.30874 16.7272 8.05204 16.1344 8.64667" stroke="#408BFC" stroke-width="1.44429" stroke-miterlimit="10"/>
<path d="M26.2122 29.0114C26.2122 29.0114 25.0265 30.9439 23.9891 30.052C22.9516 29.16 17.7644 24.5517 15.5413 21.5785C13.3182 18.6055 10.7987 15.335 8.72385 12.8078C6.64893 10.2807 3.98124 6.86156 3.83302 5.6723" stroke="#408BFC" stroke-width="1.44429" stroke-miterlimit="10"/>
<path d="M7.98285 12.0648C7.98285 12.0648 9.16851 10.1323 8.42752 8.05103C7.68647 5.96987 7.09364 4.18599 7.09364 2.84808" stroke="#408BFC" stroke-width="1.44429" stroke-miterlimit="10"/>
<path d="M20.9583 14.8227L18.1423 15.2686" stroke="#408BFC" stroke-width="1.44429" stroke-miterlimit="10"/>
<path d="M20.3655 12.4965L17.5496 12.9425" stroke="#408BFC" stroke-width="1.44429" stroke-miterlimit="10"/>
</svg>
