<svg width="23" height="39" viewBox="0 0 23 39" fill="none" xmlns="http://www.w3.org/2000/svg">
<rect x="4.38477" y="4.2693" width="18.6154" height="33.8462" rx="3.38462" fill="#D4E7DD"/>
<path d="M16.2499 0.801081V0.799921H16.1653H4.45013C2.50119 0.799921 0.915385 2.38572 0.915385 4.33467V31.4902C0.915385 33.4392 2.50119 35.025 4.45013 35.025H16.1653C18.1142 35.025 19.7 33.4392 19.7 31.4902V4.33548C19.7 2.41419 18.1599 0.846185 16.2499 0.801081ZM4.45013 2.32507H16.1653C17.2733 2.32507 18.1748 3.22667 18.1748 4.33467V5.21093H2.44038V4.33467C2.44038 3.22691 3.34198 2.32507 4.44997 2.32507H4.45013ZM18.1749 6.73608V29.0892H2.44046V6.73608H18.1749ZM16.1653 33.5005H4.45021C3.34214 33.5005 2.44062 32.5989 2.44062 31.4909V30.6146H18.1751V31.4909C18.1754 32.5987 17.2738 33.5005 16.1658 33.5005H16.1653Z" fill="#4F6258" stroke="#4F6258" stroke-width="0.169231"/>
<path d="M11.485 32.0643C11.485 32.7147 10.9576 33.2421 10.3072 33.2421C9.65682 33.2421 9.12939 32.7147 9.12939 32.0643C9.12939 31.4139 9.65682 30.8865 10.3072 30.8865C10.9576 30.8865 11.485 31.4139 11.485 32.0643Z" fill="#4F6258"/>
</svg>
