<svg width="29" height="28" viewBox="0 0 29 28" fill="none" xmlns="http://www.w3.org/2000/svg">
<path d="M25.8363 4.48425H6.85369C6.04654 4.50901 5.2768 4.84124 4.69269 5.41698C4.10858 5.99271 3.7514 6.77124 3.68994 7.60265V18.4427C3.69719 19.3068 4.03283 20.1334 4.62457 20.7445C5.21632 21.3556 6.01683 21.7023 6.85369 21.7099H14.4755L20.9468 27.2042V21.7099H25.8363C26.6731 21.7023 27.4736 21.3556 28.0654 20.7445C28.6571 20.1334 28.9928 19.3068 29 18.4427V7.75112C28.9927 6.88704 28.657 6.06049 28.0653 5.44947C27.4735 4.83845 26.6731 4.49183 25.8363 4.48425Z" fill="#FEEFEF"/>
<path d="M23.1463 1.79578L23.1544 0.899214H23.1463V1.79578ZM4.16375 1.79578V0.899214H4.15001L4.13627 0.899635L4.16375 1.79578ZM1 4.91417L0.105877 4.84808L0.103437 4.88108V4.91417H1ZM1 15.7542H0.103406L0.103469 15.7617L1 15.7542ZM4.16375 19.0214L4.15564 19.918H4.16375V19.0214ZM11.7856 19.0214L12.3658 18.3379L12.1148 18.1248H11.7856V19.0214ZM18.2569 24.5157L17.6766 25.1992C17.9429 25.4253 18.3163 25.4761 18.6334 25.3294C18.9505 25.1826 19.1534 24.8651 19.1534 24.5157H18.2569ZM18.2569 19.0214V18.1248H17.3603V19.0214H18.2569ZM23.1463 19.0214V19.918L23.1544 19.9179L23.1463 19.0214ZM26.3101 15.7542L27.2066 15.7617V15.7542H26.3101ZM26.3101 5.06264H27.2067L27.2066 5.05503L26.3101 5.06264ZM23.1463 0.899214H4.16375V2.69234H23.1463V0.899214ZM4.13627 0.899635C3.0993 0.931436 2.11567 1.35832 1.37337 2.08997L2.63212 3.36703C3.05804 2.94721 3.61391 2.70962 4.19123 2.69192L4.13627 0.899635ZM1.37337 2.08997C0.631816 2.8209 0.183058 3.80402 0.105877 4.84808L1.89412 4.98027C1.93986 4.36151 2.20545 3.78757 2.63212 3.36703L1.37337 2.08997ZM0.103437 4.91417V15.7542H1.89656V4.91417H0.103437ZM0.103469 15.7617C0.11261 16.852 0.535859 17.9004 1.29055 18.6797L2.57871 17.4324C2.14991 16.9896 1.90188 16.3847 1.89653 15.7467L0.103469 15.7617ZM1.29055 18.6797C2.04614 19.4601 3.07441 19.9081 4.15564 19.9179L4.17187 18.1249C3.57936 18.1195 3.00661 17.8743 2.57871 17.4324L1.29055 18.6797ZM4.16375 19.918H11.7856V18.1248H4.16375V19.918ZM11.2053 19.7049L17.6766 25.1992L18.8371 23.8323L12.3658 18.3379L11.2053 19.7049ZM19.1534 24.5157V19.0214H17.3603V24.5157H19.1534ZM18.2569 19.918H23.1463V18.1248H18.2569V19.918ZM23.1544 19.9179C24.2357 19.9081 25.2639 19.4601 26.0195 18.6797L24.7314 17.4324C24.3035 17.8743 23.7307 18.1195 23.1382 18.1249L23.1544 19.9179ZM26.0195 18.6797C26.7742 17.9004 27.1975 16.852 27.2066 15.7617L25.4135 15.7467C25.4082 16.3847 25.1602 16.9896 24.7314 17.4324L26.0195 18.6797ZM27.2066 15.7542V5.06264H25.4135V15.7542H27.2066ZM27.2066 5.05503C27.1974 3.96486 26.7741 2.91655 26.0194 2.13727L24.7313 3.38471C25.1601 3.82748 25.4081 4.43226 25.4136 5.07025L27.2066 5.05503ZM26.0194 2.13727C25.2638 1.35706 24.2356 0.909036 23.1544 0.899251L23.1382 2.6923C23.7307 2.69766 24.3034 2.94288 24.7313 3.38471L26.0194 2.13727Z" fill="#CF6D58"/>
<path d="M16.3449 17.9986C16.3449 17.9986 20.0838 15.4742 20.9467 13.8409C21.8096 12.356 21.9533 10.277 20.0839 9.23754C19.7388 9.04668 19.3585 8.93367 18.9679 8.90599C18.5774 8.87831 18.1856 8.9366 17.8185 9.077C17.4515 9.21739 17.1175 9.43668 16.8386 9.72037C16.5598 10.0041 16.3424 10.3457 16.201 10.7226C16.047 10.3562 15.8227 10.0258 15.5418 9.7513C15.2609 9.47675 14.9291 9.26371 14.5664 9.12498C14.2036 8.98626 13.8175 8.92471 13.4312 8.94406C13.0448 8.9634 12.6663 9.06323 12.3182 9.23754C10.5927 10.277 10.7364 12.356 11.4554 13.8409C12.6059 15.4742 16.3449 17.9986 16.3449 17.9986Z" fill="#FEEFEF"/>
<path d="M13.6554 15.3091L13.1538 16.0522L13.6554 16.3909L14.1571 16.0522L13.6554 15.3091ZM18.2572 11.1514L17.482 10.701L17.4729 10.7166L17.4645 10.7326L18.2572 11.1514ZM17.3945 6.54808L17.8302 5.76451L17.8284 5.76354L17.3945 6.54808ZM13.5116 8.03312L12.6851 8.38071C12.8275 8.71925 13.162 8.93671 13.5292 8.92951C13.8964 8.92231 14.222 8.6919 14.351 8.34804L13.5116 8.03312ZM9.62879 6.54808L9.22728 5.74645L9.19606 5.76209L9.16616 5.7801L9.62879 6.54808ZM8.76596 11.1514L7.95902 11.5422L7.99088 11.608L8.03298 11.6677L8.76596 11.1514ZM13.6554 15.3091C14.1571 16.0522 14.1572 16.0521 14.1573 16.0521C14.1574 16.052 14.1575 16.0519 14.1576 16.0519C14.1578 16.0517 14.1581 16.0516 14.1584 16.0513C14.159 16.0509 14.1599 16.0503 14.161 16.0496C14.1632 16.0481 14.1662 16.046 14.1702 16.0433C14.1781 16.038 14.1894 16.0302 14.204 16.0202C14.2333 16.0002 14.2756 15.9711 14.3294 15.9337C14.437 15.859 14.5905 15.751 14.7771 15.6167C15.1496 15.3483 15.6568 14.9723 16.1933 14.5425C16.728 14.1141 17.3023 13.624 17.8044 13.1278C18.2932 12.6447 18.7685 12.1029 19.0499 11.5703L17.4645 10.7326C17.3144 11.0166 16.9988 11.4029 16.5439 11.8524C16.1023 12.2889 15.5801 12.7362 15.0722 13.1431C14.5661 13.5485 14.0846 13.9056 13.7291 14.1617C13.5517 14.2895 13.4064 14.3915 13.3061 14.4612C13.256 14.496 13.2172 14.5228 13.1912 14.5405C13.1783 14.5494 13.1685 14.556 13.1622 14.5603C13.159 14.5625 13.1567 14.564 13.1553 14.565C13.1546 14.5655 13.1541 14.5658 13.1539 14.566C13.1537 14.5661 13.1537 14.5661 13.1536 14.5661C13.1536 14.5661 13.1537 14.5661 13.1536 14.5661C13.1537 14.5661 13.1537 14.5661 13.6554 15.3091ZM19.0324 11.6019C19.5353 10.7366 19.8568 9.65537 19.7419 8.58683C19.6224 7.47613 19.0317 6.43265 17.8302 5.76451L16.9588 7.33166C17.6266 7.70301 17.8988 8.21876 17.959 8.77865C18.0238 9.38069 17.8421 10.0814 17.482 10.701L19.0324 11.6019ZM17.8284 5.76354C17.3701 5.51005 16.8634 5.35918 16.3419 5.32222L16.2151 7.11086C16.4746 7.12925 16.7287 7.2044 16.9605 7.33263L17.8284 5.76354ZM16.3419 5.32222C15.8203 5.28526 15.2976 5.36319 14.8088 5.55014L15.4494 7.22495C15.6947 7.13111 15.9556 7.09247 16.2151 7.11086L16.3419 5.32222ZM14.8088 5.55014C14.3201 5.73704 13.8776 6.02817 13.5098 6.40243L14.7885 7.6594C14.9784 7.46629 15.2039 7.31882 15.4494 7.22495L14.8088 5.55014ZM13.5098 6.40243C13.142 6.7766 12.857 7.22538 12.6722 7.7182L14.351 8.34804C14.4489 8.08703 14.5986 7.8526 14.7885 7.6594L13.5098 6.40243ZM14.338 7.68553C14.1382 7.2103 13.8464 6.77977 13.479 6.42065L12.2257 7.70304C12.4201 7.89302 12.5769 8.12325 12.6851 8.38071L14.338 7.68553ZM13.479 6.42065C13.1115 6.06146 12.6757 5.78114 12.1972 5.59812L11.5566 7.27293C11.8035 7.36737 12.0314 7.51313 12.2257 7.70304L13.479 6.42065ZM12.1972 5.59812C11.7186 5.41508 11.2081 5.33356 10.6969 5.35916L10.7865 7.15004C11.048 7.13695 11.3098 7.17853 11.5566 7.27293L12.1972 5.59812ZM10.6969 5.35916C10.1856 5.38476 9.68569 5.51685 9.22728 5.74645L10.0303 7.34971C10.2679 7.2307 10.5251 7.16313 10.7865 7.15004L10.6969 5.35916ZM9.16616 5.7801C8.03133 6.46372 7.50488 7.51201 7.38922 8.58681C7.27713 9.62838 7.54573 10.6887 7.95902 11.5422L9.57289 10.7607C9.26713 10.1293 9.10436 9.40768 9.17205 8.77867C9.23616 8.18288 9.50066 7.67194 10.0914 7.31607L9.16616 5.7801ZM8.03298 11.6677C8.6968 12.6102 10.0259 13.7251 11.0932 14.5516C11.6445 14.9786 12.1581 15.3526 12.5335 15.6197C12.7214 15.7534 12.8753 15.8608 12.9828 15.935C13.0365 15.9721 13.0786 16.001 13.1076 16.0208C13.1222 16.0307 13.1334 16.0384 13.1411 16.0436C13.145 16.0463 13.148 16.0483 13.1501 16.0497C13.1512 16.0504 13.152 16.051 13.1526 16.0514C13.1529 16.0516 13.1532 16.0518 13.1534 16.0519C13.1535 16.052 13.1536 16.052 13.1536 16.0521C13.1537 16.0521 13.1538 16.0522 13.6554 15.3091C14.1571 14.5661 14.1572 14.5661 14.1572 14.5661C14.1572 14.5661 14.1572 14.5661 14.1572 14.5661C14.1571 14.5661 14.157 14.566 14.1569 14.5659C14.1566 14.5657 14.1561 14.5653 14.1553 14.5648C14.1538 14.5638 14.1515 14.5622 14.1482 14.56C14.1418 14.5556 14.1318 14.5489 14.1187 14.5399C14.0924 14.5219 14.053 14.495 14.0023 14.4599C13.9007 14.3897 13.7536 14.2871 13.573 14.1586C13.2114 13.9014 12.7183 13.5422 12.1911 13.1339C11.1012 12.2899 9.98557 11.326 9.49894 10.6351L8.03298 11.6677Z" fill="#CF6D58"/>
</svg>
